Land_normalized_Motion_pl10
version=1
nRows=23
nColumns=43
inDegrees=yes
endheader
time		pelvis_tilt		pelvis_list		pelvis_rotation		pelvis_tx		pelvis_ty		pelvis_tz		hip_flexion_r		hip_adduction_r		hip_rotation_r		knee_angle_r		ankle_angle_r		subtalar_angle_r		mtp_angle_r		hip_flexion_l		hip_adduction_l		hip_rotation_l		knee_angle_l		ankle_angle_l		subtalar_angle_l		mtp_angle_l		lumbar_extension		lumbar_bending		lumbar_rotation		neck_flexion		neck_lateral_bending		neck_rotation		arm_flex_r		arm_add_r		arm_rot_r		elbow_flex_r		pro_sup_r		wrist_flex_r		wrist_dev_r		hand_finger_flex_r		arm_flex_l		arm_add_l		arm_rot_l		elbow_flex_l		pro_sup_l		wrist_flex_l		wrist_dev_l		hand_finger_flex_l		
0.785833		-2.304667		9.459713		84.791206		0.005275		0.466502		0.465029		89.968630		-0.288919		3.487569		-135.650176		21.745629		1.742943		16.205332		88.881552		-8.222865		4.275574		-133.251833		16.537354		21.586062		29.821716		-66.163644		-2.802399		3.753604		31.579918		-2.122868		-3.157794		80.993172		-25.078703		19.907981		65.980107		96.077165		5.548842		-14.180512		1.297348		68.311441		-30.632984		20.363995		64.586629		129.876407		-44.020308		-9.637429		0.121479		
0.788763		-2.439965		9.546574		84.862821		0.005106		0.462587		0.463400		90.272371		-0.430588		3.695703		-136.277952		22.172958		1.970462		16.230682		89.290897		-8.288997		4.269550		-133.900157		16.496350		21.871385		30.090577		-66.429052		-2.854936		3.575211		31.844440		-2.093289		-3.177631		83.093088		-24.994629		21.156082		65.726250		96.206118		5.648485		-14.011318		1.362839		70.259937		-30.647325		21.089595		64.317568		129.405241		-43.927704		-9.841728		0.256953		
0.791692		-2.554229		9.650065		84.943267		0.004913		0.458801		0.461772		90.578188		-0.587684		3.884461		-136.904155		22.504642		2.205161		16.288687		89.675366		-8.345643		4.303882		-134.539786		16.449777		22.212349		30.263487		-66.706313		-2.881612		3.410482		32.076738		-2.076685		-3.208380		85.156732		-24.830404		22.255880		65.420181		96.552340		5.882539		-13.803471		1.445127		72.138201		-30.616763		21.668385		64.067210		129.260716		-43.654673		-9.958753		0.379076		
0.794621		-2.674349		9.957104		85.071389		0.004613		0.455671		0.460306		90.657148		-0.825232		4.167904		-137.506035		22.802574		2.762669		16.390374		89.775819		-8.363681		4.343091		-135.106595		16.406729		22.816825		30.675757		-67.210545		-2.864590		3.245669		32.266157		-2.170761		-3.255850		87.316062		-24.672468		23.472118		64.904629		96.721220		5.959331		-13.924977		1.346130		74.145963		-30.497993		22.487060		63.661140		128.587249		-43.744907		-9.932185		0.436542		
0.797551		-2.765875		10.023233		85.151765		0.004536		0.452002		0.458744		91.080562		-0.978628		4.315640		-138.133625		22.929794		2.948935		16.453848		90.195489		-8.451573		4.429472		-135.710152		16.346974		23.154761		30.900907		-67.432148		-2.896822		3.078340		32.422950		-2.086634		-3.276749		89.265820		-24.396553		24.423582		64.496171		97.068924		6.186604		-13.728500		1.369226		75.981901		-30.485707		23.091693		63.389160		128.475932		-43.481977		-10.098253		0.581851		
0.800480		-2.845547		10.223084		85.252310		0.004397		0.448768		0.457237		91.362376		-1.161314		4.489718		-138.761022		22.973926		3.215948		16.538996		90.439939		-8.525549		4.543882		-136.283013		16.296013		23.729361		31.175459		-67.794698		-2.885537		2.939411		32.543290		-2.104478		-3.290523		91.264846		-24.115384		25.391286		63.965163		97.471123		6.453643		-13.653044		1.346585		77.832164		-30.368366		23.697567		63.008635		128.294877		-43.275981		-10.155163		0.717433		
0.803409		-2.889060		10.477929		85.342601		0.004351		0.445885		0.455823		91.557656		-1.341221		4.621014		-139.358769		23.006000		3.538684		16.669703		90.583859		-8.621183		4.723537		-136.800878		16.280461		24.437204		31.577435		-68.229360		-2.872686		2.822977		32.659476		-2.108667		-3.308904		93.238231		-23.793464		26.308381		63.334583		97.837456		6.682848		-13.770560		1.191462		79.704860		-30.232718		24.371379		62.586232		127.947249		-43.235237		-10.175025		0.843398		
0.806338		-2.900418		10.668620		85.406438		0.004391		0.442888		0.454345		91.836132		-1.483368		4.686666		-139.966998		22.975124		3.724534		16.771784		90.819925		-8.762636		4.928367		-137.335416		16.267637		25.030161		31.870293		-68.577662		-2.867792		2.722100		32.744646		-2.065328		-3.305981		95.107704		-23.434578		27.129615		62.750794		98.294046		6.977465		-13.756218		1.062383		81.475187		-30.125574		24.930990		62.214354		127.846316		-43.022815		-10.234608		0.991785		
0.809268		-2.892485		10.881361		85.463973		0.004428		0.439971		0.452816		92.075062		-1.609459		4.743912		-140.578311		22.931332		3.909430		16.876123		91.031783		-8.913181		5.146642		-137.880363		16.266496		25.629460		32.160398		-68.931987		-2.849328		2.640364		32.798890		-2.029618		-3.292566		96.929210		-23.074676		27.934331		62.148397		98.777563		7.291726		-13.753302		0.901621		83.201158		-30.012780		25.491287		61.825316		127.767721		-42.795709		-10.276032		1.138186		
0.812197		-2.871821		11.090985		85.511873		0.004473		0.437180		0.451322		92.287364		-1.729882		4.784494		-141.160818		22.893601		4.084080		16.960274		91.227490		-9.065164		5.358901		-138.398689		16.289240		26.161898		32.374964		-69.286216		-2.830880		2.582239		32.843653		-1.995015		-3.282928		98.686045		-22.703994		28.656906		61.564362		99.276626		7.603499		-13.704851		0.763748		84.870447		-29.853043		25.963640		61.448560		127.777890		-42.503694		-10.286599		1.263331		
0.815126		-2.831039		11.305366		85.541057		0.004516		0.434588		0.449881		92.462518		-1.858913		4.792119		-141.712296		22.891346		4.282961		17.050802		91.365681		-9.209245		5.589413		-138.864349		16.341395		26.663027		32.575212		-69.655921		-2.814496		2.557892		32.883475		-1.959034		-3.292991		100.385408		-22.322559		29.294593		60.973410		99.765849		7.893265		-13.695305		0.599970		86.501870		-29.646961		26.394739		61.058184		127.782465		-42.235966		-10.257141		1.359159		
0.818056		-2.772043		11.521659		85.567970		0.004527		0.432158		0.448485		92.573002		-1.982025		4.797943		-142.207272		22.924896		4.500153		17.154388		91.483600		-9.338580		5.809774		-139.308920		16.416749		27.102415		32.772550		-70.034365		-2.788684		2.568529		32.926748		-1.932281		-3.319645		102.008304		-21.935509		29.823088		60.386307		100.235792		8.157556		-13.711893		0.408088		88.088258		-29.367183		26.772988		60.656628		127.763283		-42.012201		-10.198430		1.428763		
0.820985		-2.713676		11.701533		85.589622		0.004495		0.429826		0.447117		92.687009		-2.109170		4.803502		-142.666534		22.990018		4.724416		17.259921		91.602999		-9.443478		6.002423		-139.722501		16.508563		27.420429		32.941719		-70.380385		-2.763467		2.592410		32.960448		-1.895728		-3.356736		103.552365		-21.530416		30.242068		59.819768		100.669509		8.378762		-13.676717		0.250044		89.617902		-29.051737		27.084326		60.242653		127.762013		-41.791188		-10.157277		1.492554		
0.823914		-2.633708		11.955454		85.615540		0.004400		0.427561		0.445667		92.687277		-2.224705		4.834868		-143.139832		23.104459		5.003023		17.404993		91.650261		-9.524725		6.193883		-140.188363		16.618221		27.724376		33.142805		-70.775182		-2.708843		2.644786		32.977179		-1.882119		-3.404703		105.055466		-21.137918		30.660366		59.241743		101.127472		8.631517		-13.697625		0.065012		91.121113		-28.727912		27.441052		59.761485		127.744438		-41.615836		-10.137737		1.547527		
0.826843		-2.582551		12.032139		85.630588		0.004265		0.425265		0.444247		92.846648		-2.328466		4.871730		-143.543852		23.216985		5.175134		17.502024		91.845221		-9.601552		6.312394		-140.605676		16.724453		27.856166		33.261012		-71.007295		-2.679205		2.669241		33.066124		-1.796382		-3.442013		106.368622		-20.659524		30.792402		58.737072		101.412503		8.695150		-13.603459		-0.056937		92.458697		-28.345967		27.534123		59.373833		127.716853		-41.450670		-10.094351		1.594246		
0.829773		-2.506137		12.309684		85.668190		0.004140		0.423279		0.442863		92.746197		-2.454954		4.917823		-143.963317		23.416459		5.520931		17.665376		91.801903		-9.641629		6.454645		-141.046219		16.879640		28.001803		33.417980		-71.416120		-2.613449		2.707107		32.951568		-1.812549		-3.457022		107.781237		-20.264651		31.148444		58.169401		101.834788		8.899081		-13.566219		-0.132070		93.899521		-28.052936		27.900239		58.875419		127.774423		-41.254096		-10.199282		1.666315		
0.832702		-2.454543		12.347385		85.687246		0.003971		0.421213		0.441500		92.872880		-2.547499		4.956272		-144.308291		23.567427		5.699947		17.761388		91.986854		-9.710176		6.508285		-141.441251		17.013236		28.042413		33.498688		-71.603948		-2.575722		2.720991		32.992082		-1.719836		-3.474195		108.974617		-19.775777		31.180427		57.673076		102.050162		8.883733		-13.453682		-0.202268		95.136941		-27.687272		27.947709		58.502939		127.758883		-41.098519		-10.193371		1.712697		
0.835631		-2.392537		12.551207		85.716805		0.003884		0.419354		0.440140		92.818092		-2.668120		4.993057		-144.688834		23.797951		6.026319		17.918769		91.956698		-9.752913		6.587018		-141.845724		17.210040		28.039479		33.604217		-71.921985		-2.526063		2.740670		32.832418		-1.708623		-3.450678		110.205662		-19.340889		31.367919		57.124409		102.347684		8.960309		-13.408488		-0.241420		96.440073		-27.429394		28.248908		58.049664		127.804225		-40.924093		-10.327688		1.779910		
0.838561		-2.334579		12.618171		85.744161		0.003794		0.417439		0.438746		92.875492		-2.763683		5.040723		-145.023847		23.972442		6.248685		18.031526		92.072763		-9.833956		6.593807		-142.242289		17.395596		27.969919		33.666592		-72.107862		-2.484898		2.760553		32.777849		-1.639636		-3.430795		111.277407		-18.877661		31.355084		56.640116		102.505882		8.916292		-13.335686		-0.291411		97.601291		-27.121659		28.361342		57.670229		127.785259		-40.788094		-10.365991		1.825667		
0.841490		-2.277549		12.709351		85.764153		0.003667		0.415665		0.437382		92.911623		-2.873659		5.078684		-145.359017		24.154250		6.502280		18.157224		92.137312		-9.922473		6.584381		-142.612903		17.599837		27.850029		33.727018		-72.303849		-2.442216		2.781991		32.669804		-1.588382		-3.396996		112.299365		-18.433540		31.342304		56.170821		102.645172		8.877931		-13.290995		-0.339219		98.734941		-26.832259		28.526228		57.286437		127.763549		-40.666694		-10.426349		1.870843		
0.844419		-2.226910		12.829802		85.780450		0.003507		0.414041		0.436042		92.913096		-2.997305		5.130292		-145.693781		24.351996		6.831202		18.330002		92.154515		-10.023531		6.513367		-142.968314		17.852036		27.550129		33.785796		-72.509288		-2.407308		2.793903		32.489880		-1.531220		-3.348763		113.243916		-18.001018		31.292001		55.697296		102.708954		8.835067		-13.306660		-0.407194		99.868800		-26.547445		28.785300		56.851277		127.693164		-40.612094		-10.515166		1.909236		
0.847348		-2.199255		12.805817		85.800919		0.003454		0.412347		0.434708		93.070411		-3.114575		5.137599		-145.993932		24.465304		6.990775		18.422489		92.327609		-10.143400		6.452763		-143.283795		18.006877		27.384283		33.819061		-72.584018		-2.399961		2.791013		32.469150		-1.459761		-3.326512		114.081214		-17.598188		31.125539		55.343358		102.720247		8.719761		-13.255089		-0.484165		100.837976		-26.194033		28.774022		56.564590		127.600704		-40.562181		-10.476646		1.929337		
0.850278		-2.140048		12.760076		85.809246		0.003282		0.410808		0.433449		93.205488		-3.224326		5.170279		-146.240258		24.614007		7.162315		18.526053		92.488855		-10.277537		6.346391		-143.563313		18.230342		27.100082		33.852771		-72.626606		-2.349167		2.833261		32.331431		-1.367392		-3.285720		114.881825		-17.162922		30.946878		54.960665		102.672567		8.592053		-13.186341		-0.578730		101.814746		-25.878912		28.857955		56.152823		127.540873		-40.460542		-10.440072		1.968889		
